/* XPM */
static char * gtkmenuplus_xpm[] = {
"32 32 263 2",
"  	c None",
". 	c #DADADA",
"+ 	c #F0F0F0",
"@ 	c #EFEFEF",
"# 	c #EAEAEA",
"$ 	c #E4E4E4",
"% 	c #FFFFFF",
"& 	c #FCFCFC",
"* 	c #ECECEC",
"= 	c #FEFEFE",
"- 	c #EEEEEE",
"; 	c #E8E8E8",
"> 	c #F1F1F1",
", 	c #E7E7E7",
"' 	c #C6DDE3",
") 	c #D4F0FB",
"! 	c #D1EDF8",
"~ 	c #CEEAF6",
"{ 	c #CCE8F3",
"] 	c #CBE6F2",
"^ 	c #CAE6F1",
"/ 	c #C9E5F1",
"( 	c #CAE5F1",
"_ 	c #C8E4EF",
": 	c #C4DFEB",
"< 	c #BED9E4",
"[ 	c #D1D6D7",
"} 	c #DBDBDB",
"| 	c #C9C9C9",
"1 	c #D8D8D8",
"2 	c #E0DFE0",
"3 	c #E2E2E2",
"4 	c #5CC0E2",
"5 	c #50C3F6",
"6 	c #51C3F7",
"7 	c #51C2F6",
"8 	c #50C2F6",
"9 	c #4FC1F5",
"0 	c #4EC0F4",
"a 	c #4BBFF4",
"b 	c #D1E7F0",
"c 	c #FBFBFB",
"d 	c #D7D7D7",
"e 	c #45AADB",
"f 	c #36AAE7",
"g 	c #35AAE7",
"h 	c #35AAE6",
"i 	c #35A9E6",
"j 	c #34A9E6",
"k 	c #34A9E5",
"l 	c #32A7E4",
"m 	c #32A7E3",
"n 	c #2FA5E3",
"o 	c #CCE2ED",
"p 	c #FDFDFD",
"q 	c #EDEDED",
"r 	c #D6D6D6",
"s 	c #2B95CF",
"t 	c #1891D7",
"u 	c #1791D7",
"v 	c #1790D7",
"w 	c #1790D6",
"x 	c #1690D6",
"y 	c #158ED4",
"z 	c #148DD4",
"A 	c #118BD3",
"B 	c #C6DDEA",
"C 	c #F1F0F0",
"D 	c #E9E9E9",
"E 	c #D4D4D4",
"F 	c #197EC4",
"G 	c #0277C8",
"H 	c #0277C7",
"I 	c #0276C7",
"J 	c #0174C6",
"K 	c #0175C6",
"L 	c #0278C7",
"M 	c #067AC7",
"N 	c #0B7AC7",
"O 	c #C0D8E7",
"P 	c #F9FCFC",
"Q 	c #F9FDFC",
"R 	c #F8FCFC",
"S 	c #F7FCFD",
"T 	c #F6FCFD",
"U 	c #F5FBFD",
"V 	c #EDF3F5",
"W 	c #E4EAEC",
"X 	c #DEE5E8",
"Y 	c #C6D0D3",
"Z 	c #CDD8E0",
"` 	c #DFEDF7",
" .	c #DFECF7",
"..	c #DFECF6",
"+.	c #D9E5EF",
"@.	c #D6E3EB",
"#.	c #D5E1E8",
"$.	c #D5DEE4",
"%.	c #D4DBE0",
"&.	c #D3D7DC",
"*.	c #6EBFE2",
"=.	c #4EBEEF",
"-.	c #4EBDEF",
";.	c #4EBDEE",
">.	c #4EBEF0",
",.	c #4CBEF0",
"'.	c #4DBEF2",
").	c #4CBEF2",
"!.	c #48BAE7",
"~.	c #F8F8F8",
"{.	c #F2F2F2",
"].	c #E5E6E6",
"^.	c #C8C8C8",
"/.	c #A9A8A8",
"(.	c #60B3DE",
"_.	c #39ADE9",
":.	c #39ADE8",
"<.	c #38ADE8",
"[.	c #38ACE8",
"}.	c #36AAE6",
"|.	c #35AAE5",
"1.	c #35A9E5",
"2.	c #30A3DE",
"3.	c #FAFAFA",
"4.	c #F3F3F3",
"5.	c #BBBABA",
"6.	c #D1D0D0",
"7.	c #C4C3C3",
"8.	c #BFBEBD",
"9.	c #4BA1D2",
"0.	c #1B94D9",
"a.	c #1B93D9",
"b.	c #1B93D8",
"c.	c #1A93D8",
"d.	c #1991D6",
"e.	c #1891D6",
"f.	c #1890D5",
"g.	c #1790D5",
"h.	c #178FD4",
"i.	c #1489CE",
"j.	c #F5F5F5",
"k.	c #BDBDBE",
"l.	c #B6B6B6",
"m.	c #E3E3E3",
"n.	c #949494",
"o.	c #D6D5D4",
"p.	c #3F90C8",
"q.	c #037CCA",
"r.	c #037BCA",
"s.	c #037AC9",
"t.	c #0279C8",
"u.	c #0279C7",
"v.	c #0178C6",
"w.	c #0172C1",
"x.	c #C0C0C1",
"y.	c #BABABA",
"z.	c #979799",
"A.	c #807E7F",
"B.	c #B5B5B5",
"C.	c #D5D5D5",
"D.	c #BACDDB",
"E.	c #B8D3E6",
"F.	c #B6D2E5",
"G.	c #B6D1E5",
"H.	c #B3CEE1",
"I.	c #B0CBDE",
"J.	c #AEC9DC",
"K.	c #ACC7DA",
"L.	c #AAC5D8",
"M.	c #A8C2D6",
"N.	c #A6C0D3",
"O.	c #93AEC2",
"P.	c #C5C5C6",
"Q.	c #BABABB",
"R.	c #979798",
"S.	c #9D9D9E",
"T.	c #A9A9AA",
"U.	c #DCDCDC",
"V.	c #F6F6F6",
"W.	c #DEDEDE",
"X.	c #C7C7C7",
"Y.	c #F7F7F7",
"Z.	c #B9B9BA",
"`.	c #959597",
" +	c #AAAAAA",
".+	c #EBEBEB",
"++	c #F9F9F9",
"@+	c #F4F4F4",
"#+	c #E6E6E6",
"$+	c #E1E1E1",
"%+	c #C5C5C5",
"&+	c #B8B8B9",
"*+	c #919293",
"=+	c #ABABAB",
"-+	c #DFDFDF",
";+	c #DDDDDD",
">+	c #D9D9D9",
",+	c #C2C2C2",
"'+	c #C1C1C2",
")+	c #B7B7B8",
"!+	c #8F8F91",
"~+	c #99999A",
"{+	c #A4A4A4",
"]+	c #D0D0D0",
"^+	c #CECECE",
"/+	c #C1C1C1",
"(+	c #CDCDCD",
"_+	c #CACACA",
":+	c #BEBEBE",
"<+	c #B8B8B8",
"[+	c #C6C6C7",
"}+	c #8E8F90",
"|+	c #9C9C9D",
"1+	c #ADADAD",
"2+	c #D3D3D3",
"3+	c #CBCBCB",
"4+	c #CACACB",
"5+	c #AFAFB0",
"6+	c #9B9B9C",
"7+	c #AEAEAE",
"8+	c #D2D2D2",
"9+	c #C9CACB",
"0+	c #B0B0B2",
"a+	c #AFAFAF",
"b+	c #E0E0E0",
"c+	c #D1D1D1",
"d+	c #9A9A9B",
"e+	c #C3C3C4",
"f+	c #C8C8C9",
"g+	c #ADAEAE",
"h+	c #CFCFCF",
"i+	c #AFB0B0",
"j+	c #CAC9CB",
"k+	c #9A9A9C",
"l+	c #B2B2B2",
"m+	c #E5E5E5",
"n+	c #CCCCCC",
"o+	c #949496",
"p+	c #B3B3B3",
"q+	c #7E7C7E",
"r+	c #C4C5C6",
"s+	c #B4B4B4",
"t+	c #706E70",
"u+	c #7E7C7D",
"v+	c #8D8C8D",
"w+	c #868687",
"x+	c #707070",
"y+	c #A2A2A2",
"z+	c #B0B0B0",
"A+	c #A8A8A8",
"B+	c #A7A7A7",
"C+	c #A5A5A5",
"D+	c #A1A1A1",
"E+	c #9F9F9F",
"F+	c #9E9E9E",
"G+	c #9C9C9C",
"H+	c #999999",
"I+	c #9A9A9A",
"J+	c #4A4748",
"K+	c #757374",
"L+	c #666566",
"M+	c #221F1F",
"N+	c #494647",
"                                                                ",
"        . + + + + + + + + + + + + + + @ @ #                     ",
"        $ % % % % % % % % % % % % % % % & *                     ",
"        $ % % % % % % % % % % % % % % = - ;                     ",
"        $ % % % % % % % % % % % % % % > # ,                     ",
"        ' ) ! ~ { ] ^ / / / / ^ ( _ : < [ } | 1 . } 2 3 $ $ $   ",
"        4 5 6 6 6 7 7 8 8 8 8 8 8 9 0 a b % % % % % % % % % c d ",
"        e f g g g g h h i i j j k l m n o % % % % % % % % p q r ",
"        s t t t u v v w w w w x y y z A B % % % % % % % % C D E ",
"        F G G G H I I I I I I J K L M N O P P Q R S T U V W X Y ",
"        Z ` ` ` `  . . . ...+.@.#.$.%.&.*.=.-.;.-.>.>.>.,.'.).!.",
"        $ % % % % % % % % ~.{.@ * ].^./.(._._.:.<.[.[.}.}.|.1.2.",
"        $ % % % % % % % 3.4.+ , 5.6.7.8.9.0.a.b.c.c.d.e.f.g.h.i.",
"        $ % % % % % % & j.{.* k.l.m.n.o.p.q.q.r.r.s.t.t.u.L v.w.",
"        m.c ~.j.4.{.+ * D $ x.y.z.A.B.C.D.E.F.G.H.I.J.K.L.M.N.O.",
"        $ % % % % = ~.j.@ P.Q.R.S.T.d U.* % % & V.> q ; m.W.. X.",
"        $ % % % % c Y.+ P.Z.`.S. +C.W.} .+% = ++@+@ .+#+$+U.d %+",
"        $ % % % & ~.{.P.&+*+S.=+r -+;+>+.+% c V.{.q ; $ -+. C.,+",
"        m.3.Y.4.@ D '+)+!+~+{+]+} >+1 d ^+/+| (+_+| ^.%+,+:+<+  ",
"        $ % = & V.[+&+}+|+1+. m.$+;+} d 2+3+                    ",
"        $ % p Y.P.4+5+6+7+} $ 3 -+U.1 r 8+]+                    ",
"        $ % ~.P.9+0+6+a+U.#+m.b+;+. d E c+^+                    ",
"        m.++P.4+0+d+a+W.; #+m.b+W.. 1 E c+^+                    ",
"        U.e+f+0+~+g+1 $+W.} >+r E c+h+(+3+_+                    ",
"        i+j+0+k+l+$+.+; m+3 -+U.>+r 2+]+n+_+                    ",
"      o+x.0+k+p+3 q # , $ $+;+} d E c+^+3+^.                    ",
"    q+r+0+k+s+$ - * ; m+3 -+U.>+r 2+]+n+_+X.                    ",
"  t+u+v+w+x+y+z+1+=+A+B+C+{+{+y+D+E+F+G+H+I+                    ",
"  J+K+L+                                                        ",
"  M+N+                                                          ",
"                                                                ",
"                                                                "};
